<svg width="138" height="31" viewBox="0 0 138 31" fill="none" xmlns="http://www.w3.org/2000/svg">
<path d="M4.52462 25.0531H14.2015L13.7569 22.0977H4.96923L4.52462 25.0531ZM9.31077 16.8408L12.0569 23.1962L12.0046 24.1377L14.3585 29.2115H18.5954L9.31077 9.83154L0.0261538 29.2115H4.23692L6.64308 23.9808L6.56462 23.1438L9.31077 16.8408ZM34.9137 10.9038V22.2546L21.8891 9.98846V29.2115H25.4984V17.8608L38.523 30.1269V10.9038H34.9137ZM41.9775 14.2777H46.8945V29.2115H50.6345V14.2777H55.5775V10.9038H41.9775V14.2777ZM60.6107 20.0577C60.6107 18.8895 60.8548 17.8521 61.343 16.9454C61.8312 16.0387 62.5025 15.3238 63.3569 14.8008C64.2112 14.2777 65.2051 14.0162 66.3384 14.0162C67.4892 14.0162 68.4917 14.2777 69.3461 14.8008C70.2005 15.3238 70.863 16.0387 71.3338 16.9454C71.8046 17.8521 72.04 18.8895 72.04 20.0577C72.04 21.2259 71.7958 22.2633 71.3076 23.17C70.8369 24.0767 70.1743 24.7915 69.32 25.3146C68.4656 25.8377 67.4717 26.0992 66.3384 26.0992C65.2051 26.0992 64.2112 25.8377 63.3569 25.3146C62.5025 24.7915 61.8312 24.0767 61.343 23.17C60.8548 22.2633 60.6107 21.2259 60.6107 20.0577ZM56.6615 20.0577C56.6615 21.4351 56.8969 22.7167 57.3676 23.9023C57.8384 25.0705 58.5097 26.0905 59.3815 26.9623C60.2533 27.8341 61.2733 28.5141 62.4415 29.0023C63.6271 29.4731 64.9261 29.7085 66.3384 29.7085C67.7507 29.7085 69.041 29.4731 70.2092 29.0023C71.3948 28.5141 72.4148 27.8341 73.2692 26.9623C74.141 26.0905 74.8123 25.0705 75.283 23.9023C75.7712 22.7167 76.0153 21.4351 76.0153 20.0577C76.0153 18.6628 75.7712 17.39 75.283 16.2392C74.8123 15.071 74.1323 14.0597 73.243 13.2054C72.3712 12.351 71.3512 11.6972 70.183 11.2438C69.0148 10.7731 67.7333 10.5377 66.3384 10.5377C64.961 10.5377 63.6794 10.7731 62.4938 11.2438C61.3256 11.6972 60.3056 12.351 59.4338 13.2054C58.562 14.0597 57.882 15.071 57.3938 16.2392C56.9056 17.39 56.6615 18.6628 56.6615 20.0577ZM93.2389 10.9038V22.2546L80.2143 9.98846V29.2115H83.8235V17.8608L96.8481 30.1269V10.9038H93.2389ZM112.307 10.9038L108.358 18.2792L104.435 10.9038H100.172L106.475 21.6531V29.2115H110.267V21.6269L116.57 10.9038H112.307ZM121.49 20.0577C121.49 18.8895 121.734 17.8521 122.222 16.9454C122.71 16.0387 123.382 15.3238 124.236 14.8008C125.09 14.2777 126.084 14.0162 127.218 14.0162C128.368 14.0162 129.371 14.2777 130.225 14.8008C131.08 15.3238 131.742 16.0387 132.213 16.9454C132.684 17.8521 132.919 18.8895 132.919 20.0577C132.919 21.2259 132.675 22.2633 132.187 23.17C131.716 24.0767 131.054 24.7915 130.199 25.3146C129.345 25.8377 128.351 26.0992 127.218 26.0992C126.084 26.0992 125.09 25.8377 124.236 25.3146C123.382 24.7915 122.71 24.0767 122.222 23.17C121.734 22.2633 121.49 21.2259 121.49 20.0577ZM117.541 20.0577C117.541 21.4351 117.776 22.7167 118.247 23.9023C118.718 25.0705 119.389 26.0905 120.261 26.9623C121.132 27.8341 122.152 28.5141 123.321 29.0023C124.506 29.4731 125.805 29.7085 127.218 29.7085C128.63 29.7085 129.92 29.4731 131.088 29.0023C132.274 28.5141 133.294 27.8341 134.148 26.9623C135.02 26.0905 135.691 25.0705 136.162 23.9023C136.65 22.7167 136.895 21.4351 136.895 20.0577C136.895 18.6628 136.65 17.39 136.162 16.2392C135.691 15.071 135.011 14.0597 134.122 13.2054C133.25 12.351 132.23 11.6972 131.062 11.2438C129.894 10.7731 128.612 10.5377 127.218 10.5377C125.84 10.5377 124.559 10.7731 123.373 11.2438C122.205 11.6972 121.185 12.351 120.313 13.2054C119.441 14.0597 118.761 15.071 118.273 16.2392C117.785 17.39 117.541 18.6628 117.541 20.0577Z" fill="#1F1F1F"/>
<circle cx="108.538" cy="4.25" r="2.79977" fill="#14213D" stroke="#14213D" stroke-width="1.32353"/>
</svg>
